Coordinates
version=1
nRows=17
nColumns=36
inDegrees=yes

Units are S.I. units (second, meters, Newtons, ...)
If the header above contains a line with 'inDegrees', this indicates whether rotational values are in degrees (yes) or radians (no).

endheader
time	pelvis_tilt	pelvis_list	pelvis_rotation	pelvis_tx	pelvis_ty	pelvis_tz	hip_flexion_r	hip_adduction_r	hip_rotation_r	knee_angle_r	knee_angle_r_beta	ankle_angle_r	subtalar_angle_r	mtp_angle_r	hip_flexion_l	hip_adduction_l	hip_rotation_l	knee_angle_l	knee_angle_l_beta	ankle_angle_l	subtalar_angle_l	mtp_angle_l	lumbar_extension	lumbar_bending	lumbar_rotation	arm_flex_r	arm_add_r	arm_rot_r	elbow_flex_r	pro_sup_r	arm_flex_l	arm_add_l	arm_rot_l	elbow_flex_l	pro_sup_l
      1.26000000	      5.83828659	      0.38634756	      2.56475995	     -0.45932025	      1.19170003	     -0.57013368	      9.90457235	     -0.34408563	    -17.34555624	      5.57903403	      0.09737251	    -22.77410464	      4.71295320	     -6.99227244	     12.29965992	     -4.24991489	    -11.62109314	      6.74354878	      0.11769713	    -24.89657825	      8.37647864	     -6.99227244	    -12.26765348	     -0.19921019	    -15.08246694	     -5.89476604	    -60.66160313	      0.39936329	    137.20629885	    109.55620590	    -67.83237381	    -35.81678591	    -74.86732464	    135.24352780	     92.52139742
      1.27000000	      6.62597566	      0.36803774	      2.91127587	     -0.44758851	      1.17013813	     -0.57113102	     10.07482674	     -0.76503706	    -17.43883008	      7.69698378	      0.13433771	    -23.66239558	      2.75024815	     -7.11482243	     12.57632354	     -4.47843684	    -11.02673203	      9.61518825	      0.16781669	    -25.99747365	      7.70684350	     -7.11482243	    -13.02959442	     -0.07668552	    -13.08068715	    -20.50812008	    -59.16440249	    -13.71242773	    140.21831531	    109.98399582	    -67.47800127	    -35.91322712	    -73.14490962	    136.02171941	     93.03759015
      1.28000000	      7.51120712	      0.35899982	      3.15281150	     -0.43637249	      1.14761198	     -0.57204013	     10.43912337	     -1.20303112	    -16.85221973	     10.49289470	      0.18313556	    -25.01678412	      0.84069414	     -7.17941447	     12.93819088	     -4.64402748	     -9.80900954	     12.88002700	      0.22479888	    -27.12017128	      6.23312104	     -7.17941447	    -13.90132941	      0.07817606	    -11.44509038	    -31.40685029	    -56.13953727	    -24.30037854	    142.48435093	    110.61621302	    -67.11558575	    -35.19873033	    -71.45870719	    136.72786150	     93.40910592
      1.29000000	      8.40722897	      0.37635249	      3.36391948	     -0.42586744	      1.12421205	     -0.57283961	     11.06903290	     -1.58358869	    -15.22747552	     13.80757612	      0.24098767	    -26.59983289	     -0.98878078	     -7.22734242	     13.55564404	     -4.62556067	     -7.84664528	     16.48575200	      0.28773065	    -28.18192195	      4.12898679	     -7.22734242	    -14.82980108	      0.21124757	    -10.36817260	    -38.25246397	    -52.50427128	    -30.99361190	    144.01190318	    111.09732241	    -66.80191066	    -33.57492949	    -69.89034416	    137.25269909	     93.74724470
      1.30000000	      9.13843228	      0.34339203	      3.48688679	     -0.41629972	      1.09982648	     -0.57327463	     12.31714381	     -1.75913479	    -12.85247098	     18.49777778	      0.32284713	    -24.66943064	     -2.90200405	     -7.26514549	     14.66320365	     -4.53824434	     -5.72752512	     20.95696495	      0.36576804	    -26.52394864	      1.78988731	     -7.26514549	    -15.68004598	      0.33050207	     -9.65551420	    -42.04063210	    -48.74114527	    -34.80098755	    144.86831485	    111.26876077	    -66.45605807	    -31.26008122	    -68.28110811	    137.60322886	     93.88657204
      1.31000000	      9.80102440	      0.36018409	      3.49543139	     -0.40728436	      1.07409745	     -0.57343958	     14.14726907	     -1.90884800	    -10.77180597	     25.48626671	      0.44481927	    -15.22189775	     -4.26292933	     -7.30286983	     16.10643259	     -4.45105031	     -4.39789788	     27.04551187	      0.47203323	    -18.40131181	     -0.27301827	     -7.30286983	    -16.54516165	      0.30846593	     -9.26965683	    -43.67429429	    -45.23374955	    -36.47765942	    145.25606586	    110.11150364	    -66.19096382	    -28.41350792	    -66.78392581	    137.93140435	     93.18830238
      1.32000000	     10.45150560	      0.43262849	      3.33917351	     -0.39868687	      1.04738850	     -0.57327225	     16.07599689	     -1.84297488	     -8.92333812	     33.23142825	      0.57999784	     -2.96746017	     -6.21345222	     -7.34847740	     17.58736369	     -4.40431709	     -3.76467769	     33.99896829	      0.59339394	     -6.50195400	     -2.33540121	     -7.34847740	    -17.46084564	      0.24158700	     -8.55188271	    -44.70214663	    -41.45934647	    -38.03054653	    145.23711456	    112.48977720	    -65.48743504	    -25.98127504	    -64.75482586	    137.62711375	     94.36174517
      1.33000000	     10.81497555	      0.34985953	      3.16578455	     -0.39137968	      1.02149754	     -0.57265649	     17.85983129	     -1.29235901	     -7.43365517	     39.43674902	      0.68830112	      6.51075373	     -8.24850909	     -7.37932636	     19.28927646	     -4.60153461	     -3.44805554	     40.29951741	      0.70335927	      3.85636570	     -3.29881847	     -7.37932636	    -18.11621536	      0.19177312	     -8.38542610	    -43.54490661	    -38.32988494	    -37.07139115	    144.31897984	    112.80833519	    -64.63140283	    -23.02335255	    -62.50108781	    136.96219664	     95.01566587
      1.34000000	     10.10072867	     -0.09283949	      3.02843954	     -0.38610077	      0.99742904	     -0.57169475	     20.48292382	     -0.16349546	     -6.33085748	     43.89788201	      0.76616258	     12.00240172	    -11.33880567	     -7.39302835	     22.12407029	     -5.10791499	     -3.21611416	     45.43136288	      0.79292687	     10.68000138	     -4.36127979	     -7.39302835	    -17.70424416	      0.53490558	     -8.08586519	    -41.28592574	    -34.85256080	    -35.05111704	    142.62375304	    111.31275266	    -62.39980491	    -20.29959533	    -58.95786537	    135.53530056	     94.00117514
      1.35000000	      8.33456876	     -0.71320518	      2.93839521	     -0.38250071	      0.97567950	     -0.57081266	     24.60592775	      1.20110268	     -5.08818320	     48.28228602	      0.84268486	     14.63247443	    -14.93819322	     -7.40393954	     26.12736910	     -5.51342782	     -2.57319292	     49.85811178	      0.87018821	     14.68079733	     -6.34105727	     -7.40393954	    -16.19284159	      1.11458961	     -7.83311149	    -38.11098267	    -31.18857080	    -32.48559182	    139.65373365	    110.03718895	    -59.16299571	    -17.70873942	    -54.77701016	    132.86695893	     92.89791462
      1.36000000	      6.99231374	     -1.16865253	      3.01786435	     -0.38011721	      0.95758611	     -0.57045589	     28.88728627	      2.48131434	     -3.28844003	     53.49228428	      0.93361649	     14.96061371	    -18.56944702	     -7.41912912	     29.84564900	     -5.43435465	     -1.26317495	     54.25229200	      0.94688112	     17.07047198	     -8.32852194	     -7.41912912	    -15.30823481	      1.65005349	     -7.88769876	    -34.09324543	    -27.72057941	    -30.20913758	    135.30550991	    114.00457849	    -55.17956950	    -15.33183425	    -50.91536342	    129.02876496	     94.22254743
      1.37000000	      6.94279585	     -1.43456707	      3.24346055	     -0.37871168	      0.94375371	     -0.57061568	     31.66266461	      3.51308065	     -1.64939468	     58.53418066	      1.02161418	     15.49329922	    -20.05559145	     -7.42045836	     32.21166274	     -4.94100696	      0.56107465	     58.48706634	      1.02079188	     18.29425654	    -10.00621169	     -7.42045836	    -16.16151013	      2.14229393	     -7.85940736	    -29.86975833	    -24.42942463	    -28.20377203	    130.98623809	    113.56366048	    -50.56138045	    -13.58694786	    -47.15639302	    124.98396143	     93.99377131
      1.38000000	      7.41226643	     -1.75061091	      3.51025813	     -0.37817340	      0.93249898	     -0.57071495	     33.04657758	      4.44544039	     -0.83276177	     62.05219373	      1.08301509	     15.88334074	    -21.28608557	     -7.42245125	     33.83559242	     -4.56194623	      2.20352862	     62.18325067	      1.08530246	     18.59301640	    -11.33758538	     -7.42245125	    -17.85867175	      2.64577364	     -8.01226342	    -25.34435193	    -21.74615692	    -25.84849809	    126.65002944	    113.43335822	    -45.99376534	    -11.90739531	    -43.96461202	    121.31512233	     93.89740575
      1.39000000	      7.90953217	     -1.90029135	      3.79816713	     -0.37782557	      0.92291605	     -0.57092315	     33.52230922	      5.06037714	     -0.45258703	     64.06635031	      1.11816875	     16.89854397	    -22.54268963	     -7.42436711	     34.75458338	     -4.11114932	      3.33022980	     64.77749975	      1.13058065	     19.40058429	    -12.31157747	     -7.42436711	    -19.69701183	      3.00918692	     -8.12684966	    -21.11134834	    -19.48450159	    -23.41792527	    122.67977991	    113.38605094	    -41.55277216	    -10.79269961	    -40.77723864	    117.85358420	     93.86937436
      1.40000000	      8.03792503	     -1.71436418	      4.17618893	     -0.37712475	      0.91390372	     -0.57152157	     34.10484616	      5.17499502	     -0.14496490	     65.70282095	      1.14673055	     18.09895589	    -23.74116982	     -7.42503963	     35.51577220	     -3.33030203	      4.01158011	     66.58616968	      1.16214790	     20.53272843	    -13.11443261	     -7.42503963	    -21.07834285	      3.07123971	     -8.18462001	    -17.50725298	    -17.69136175	    -21.19221926	    119.44942968	    113.22722956	    -37.33722047	    -10.44775615	    -37.30829199	    114.82676271	     93.73466605
      1.41000000	      7.45111935	     -1.52510134	      4.64707615	     -0.37633749	      0.90488792	     -0.57240627	     35.48931502	      5.10520268	      0.07102362	     67.40703633	      1.17647472	     19.16975359	    -24.52828307	     -7.42654214	     36.93590676	     -2.48234392	      4.59555939	     68.12494581	      1.18900461	     21.55419207	    -13.66428849	     -7.42654214	    -21.51105180	      3.12737596	     -8.38114096	    -14.22552532	    -16.88370813	    -18.24778067	    116.91166287	    113.25327796	    -33.52914643	    -10.73990236	    -33.63264290	    112.31842649	     93.89650169
      1.42000000	      6.70021662	     -1.54657558	      5.00864514	     -0.37594744	      0.89712615	     -0.57324339	     36.99964128	      5.11538928	      0.11947002	     68.90308158	      1.20258564	     20.10363926	    -24.80090611	     -7.42813480	     38.52756990	     -1.94279978	      5.08532971	     69.49904350	      1.21298714	     22.27782571	    -14.09051288	     -7.42813480	    -21.75419809	      3.34039210	     -8.24684351	    -11.10998606	    -16.77716560	    -15.22631594	    114.89337058	    113.39901796	    -29.66760736	    -11.53960548	    -29.83353439	    110.31793895	     94.29684965
